# xmcd
#
# Track frame offsets:
#	150
#	17458
#	32631
#	46793
#	59181
#	73814
#	84374
#	99622
#	114676
#	132082
#	145210
#	162591
#	179026
#	192945
#	208891
#	224769
#	237064
#	252405
#	266683
#	280193
#
# Disc length: 3899 seconds
#
# Revision: 0
# Processed by: cddbd v1.5.2PL0 Copyright (c) Steve Scherf et al.
# Submitted via: FairStars CD Ripper 1.80
#
DISCID=3a0f3914
DTITLE=Various Artist - NOW That's What I Call Summer Party 2018 CD3
DYEAR=2018
DGENRE=Dance
TTITLE0=French Montana feat. Swae Lee - Unforgettable [Explicit]
TTITLE1=Liam Payne feat. Quavo - Strip That Down
TTITLE2=Bruno Mars - Finesse
TTITLE3=Jax Jones feat. Demi Lovato and Stefflon Don - Instruction [Clean]
TTITLE4=MK - 17
TTITLE5=James Hype feat. Kelli-Leigh - More Than Friends
TTITLE6=Sigala and Paloma Faith - Lullaby
TTITLE7=Demi Lovato - Sorry Not Sorry
TTITLE8=Rudimental feat. James Arthur - Sun Comes Up
TTITLE9=Martin Jensen - Solo Dance
TTITLE10=Sigrid - Strangers
TTITLE11=Mabel and Not3s - Fine Line (Radio Edit) [Clean]
TTITLE12=RAYE and Mr Eazi - Decline
TTITLE13=Stefflon Don feat. French Montana - Hurtin' Me
TTITLE14=M.O, Lotto Boyzz and Mr Eazi - Bad Vibe
TTITLE15=Fifth Harmony feat. Gucci Mane - Down
TTITLE16=Zedd and Liam Payne - Get Low
TTITLE17=Louis Tomlinson feat. Bebe Rexha and Digital Farm Animals - Back to You [Clean]
TTITLE18=Marshmello feat. Khalid - Silence
TTITLE19=Bebe Rexha feat. Florida Georgia Line - Meant to Be
EXTD=
EXTT0=
EXTT1=
EXTT2=
EXTT3=
EXTT4=
EXTT5=
EXTT6=
EXTT7=
EXTT8=
EXTT9=
EXTT10=
EXTT11=
EXTT12=
EXTT13=
EXTT14=
EXTT15=
EXTT16=
EXTT17=
EXTT18=
EXTT19=
PLAYORDER=
